<mxfile host="app.diagrams.net" modified="2021-11-20T08:32:27.959Z" agent="5.0 (Macintosh; Intel Mac OS X 10_15_7) AppleWebKit/537.36 (KHTML, like Gecko) Chrome/95.0.4638.69 Safari/537.36" etag="59RVsTrR_iNFg32wuxUT" version="14.8.5" type="github" pages="3">
  <diagram id="ONJ3bi8CD5PW0rqa4RJ9" name="删除工具场景">
    <mxGraphModel dx="1186" dy="589" grid="1" gridSize="10" guides="1" tooltips="1" connect="1" arrows="1" fold="1" page="1" pageScale="1" pageWidth="1169" pageHeight="827" math="0" shadow="0">
      <root>
        <mxCell id="9Tf-u0OhuVVysDJYSm5w-0" />
        <mxCell id="9Tf-u0OhuVVysDJYSm5w-1" parent="9Tf-u0OhuVVysDJYSm5w-0" />
        <mxCell id="knsLSSklkNCvqvJmg3KK-0" value="删除工具场景" style="swimlane;html=1;childLayout=stackLayout;horizontal=1;startSize=20;horizontalStack=0;rounded=0;shadow=0;labelBackgroundColor=none;strokeWidth=1;fontFamily=Verdana;fontSize=8;align=center;" vertex="1" parent="9Tf-u0OhuVVysDJYSm5w-1">
          <mxGeometry x="180" y="70" width="850" height="500" as="geometry" />
        </mxCell>
        <mxCell id="knsLSSklkNCvqvJmg3KK-1" value="Lane 1" style="swimlane;html=1;startSize=20;horizontal=0;" vertex="1" parent="knsLSSklkNCvqvJmg3KK-0">
          <mxGeometry y="20" width="850" height="150" as="geometry" />
        </mxCell>
        <mxCell id="knsLSSklkNCvqvJmg3KK-2" style="edgeStyle=orthogonalEdgeStyle;rounded=0;html=1;labelBackgroundColor=none;startArrow=none;startFill=0;startSize=5;endArrow=classicThin;endFill=1;endSize=5;jettySize=auto;orthogonalLoop=1;strokeWidth=1;fontFamily=Verdana;fontSize=8" edge="1" parent="knsLSSklkNCvqvJmg3KK-1" source="knsLSSklkNCvqvJmg3KK-3" target="knsLSSklkNCvqvJmg3KK-4">
          <mxGeometry relative="1" as="geometry" />
        </mxCell>
        <mxCell id="knsLSSklkNCvqvJmg3KK-3" value="" style="ellipse;whiteSpace=wrap;html=1;rounded=0;shadow=0;labelBackgroundColor=none;strokeWidth=1;fontFamily=Verdana;fontSize=8;align=center;" vertex="1" parent="knsLSSklkNCvqvJmg3KK-1">
          <mxGeometry x="60" y="60" width="30" height="30" as="geometry" />
        </mxCell>
        <mxCell id="knsLSSklkNCvqvJmg3KK-4" value="进入工具管理页面" style="rounded=1;whiteSpace=wrap;html=1;shadow=0;labelBackgroundColor=none;strokeWidth=1;fontFamily=Verdana;fontSize=8;align=center;" vertex="1" parent="knsLSSklkNCvqvJmg3KK-1">
          <mxGeometry x="120" y="56.49999999999997" width="70" height="37" as="geometry" />
        </mxCell>
        <mxCell id="knsLSSklkNCvqvJmg3KK-5" value="" style="edgeStyle=orthogonalEdgeStyle;rounded=0;orthogonalLoop=1;jettySize=auto;html=1;" edge="1" parent="knsLSSklkNCvqvJmg3KK-1" source="knsLSSklkNCvqvJmg3KK-6" target="knsLSSklkNCvqvJmg3KK-7">
          <mxGeometry relative="1" as="geometry" />
        </mxCell>
        <mxCell id="knsLSSklkNCvqvJmg3KK-6" value="提示权限不足" style="rounded=1;whiteSpace=wrap;html=1;shadow=0;labelBackgroundColor=none;strokeWidth=1;fontFamily=Verdana;fontSize=8;align=center;" vertex="1" parent="knsLSSklkNCvqvJmg3KK-1">
          <mxGeometry x="312" y="54.49999999999997" width="70" height="37" as="geometry" />
        </mxCell>
        <mxCell id="knsLSSklkNCvqvJmg3KK-7" value="" style="ellipse;whiteSpace=wrap;html=1;rounded=0;shadow=0;labelBackgroundColor=none;strokeWidth=2;fontFamily=Verdana;fontSize=8;align=center;" vertex="1" parent="knsLSSklkNCvqvJmg3KK-1">
          <mxGeometry x="450" y="58" width="30" height="30" as="geometry" />
        </mxCell>
        <mxCell id="knsLSSklkNCvqvJmg3KK-8" value="" style="edgeStyle=orthogonalEdgeStyle;rounded=0;orthogonalLoop=1;jettySize=auto;html=1;" edge="1" parent="knsLSSklkNCvqvJmg3KK-1" source="knsLSSklkNCvqvJmg3KK-9" target="knsLSSklkNCvqvJmg3KK-10">
          <mxGeometry relative="1" as="geometry" />
        </mxCell>
        <mxCell id="knsLSSklkNCvqvJmg3KK-9" value="进行上传" style="rounded=1;whiteSpace=wrap;html=1;shadow=0;labelBackgroundColor=none;strokeWidth=1;fontFamily=Verdana;fontSize=8;align=center;" vertex="1" parent="knsLSSklkNCvqvJmg3KK-1">
          <mxGeometry x="600" y="54.49999999999997" width="70" height="37" as="geometry" />
        </mxCell>
        <mxCell id="knsLSSklkNCvqvJmg3KK-10" value="" style="ellipse;whiteSpace=wrap;html=1;rounded=0;shadow=0;labelBackgroundColor=none;strokeWidth=2;fontFamily=Verdana;fontSize=8;align=center;" vertex="1" parent="knsLSSklkNCvqvJmg3KK-1">
          <mxGeometry x="740" y="58" width="30" height="30" as="geometry" />
        </mxCell>
        <mxCell id="knsLSSklkNCvqvJmg3KK-11" value="Lane 2" style="swimlane;html=1;startSize=20;horizontal=0;" vertex="1" parent="knsLSSklkNCvqvJmg3KK-0">
          <mxGeometry y="170" width="850" height="150" as="geometry" />
        </mxCell>
        <mxCell id="knsLSSklkNCvqvJmg3KK-12" value="" style="edgeStyle=orthogonalEdgeStyle;rounded=0;orthogonalLoop=1;jettySize=auto;html=1;entryX=0;entryY=0.5;entryDx=0;entryDy=0;entryPerimeter=0;" edge="1" parent="knsLSSklkNCvqvJmg3KK-11" source="knsLSSklkNCvqvJmg3KK-13" target="knsLSSklkNCvqvJmg3KK-14">
          <mxGeometry relative="1" as="geometry">
            <mxPoint x="240" y="68.5" as="targetPoint" />
          </mxGeometry>
        </mxCell>
        <mxCell id="knsLSSklkNCvqvJmg3KK-13" value="点击删除工具" style="rounded=1;whiteSpace=wrap;html=1;shadow=0;labelBackgroundColor=none;strokeWidth=1;fontFamily=Verdana;fontSize=8;align=center;" vertex="1" parent="knsLSSklkNCvqvJmg3KK-11">
          <mxGeometry x="120" y="49.99999999999996" width="70" height="37" as="geometry" />
        </mxCell>
        <mxCell id="knsLSSklkNCvqvJmg3KK-14" value="权限检查" style="strokeWidth=1;html=1;shape=mxgraph.flowchart.decision;whiteSpace=wrap;rounded=1;shadow=0;labelBackgroundColor=none;fontFamily=Verdana;fontSize=8;align=center;" vertex="1" parent="knsLSSklkNCvqvJmg3KK-11">
          <mxGeometry x="312" y="53.5" width="70" height="30" as="geometry" />
        </mxCell>
        <mxCell id="knsLSSklkNCvqvJmg3KK-15" style="edgeStyle=orthogonalEdgeStyle;rounded=0;orthogonalLoop=1;jettySize=auto;html=1;exitX=0.5;exitY=1;exitDx=0;exitDy=0;" edge="1" parent="knsLSSklkNCvqvJmg3KK-11">
          <mxGeometry relative="1" as="geometry">
            <mxPoint x="307" y="95" as="sourcePoint" />
            <mxPoint x="307" y="95" as="targetPoint" />
          </mxGeometry>
        </mxCell>
        <mxCell id="knsLSSklkNCvqvJmg3KK-16" value="未通过" style="text;html=1;align=center;verticalAlign=middle;resizable=0;points=[];autosize=1;strokeColor=none;" vertex="1" parent="knsLSSklkNCvqvJmg3KK-11">
          <mxGeometry x="352" y="30" width="50" height="20" as="geometry" />
        </mxCell>
        <mxCell id="knsLSSklkNCvqvJmg3KK-17" value="通过" style="text;html=1;align=center;verticalAlign=middle;resizable=0;points=[];autosize=1;strokeColor=none;" vertex="1" parent="knsLSSklkNCvqvJmg3KK-11">
          <mxGeometry x="352" y="83.5" width="40" height="20" as="geometry" />
        </mxCell>
        <mxCell id="knsLSSklkNCvqvJmg3KK-18" value="Lane 3" style="swimlane;html=1;startSize=20;horizontal=0;" vertex="1" parent="knsLSSklkNCvqvJmg3KK-0">
          <mxGeometry y="320" width="850" height="180" as="geometry" />
        </mxCell>
        <mxCell id="knsLSSklkNCvqvJmg3KK-21" value="等待删除提示信息" style="rounded=1;whiteSpace=wrap;html=1;shadow=0;labelBackgroundColor=none;strokeWidth=1;fontFamily=Verdana;fontSize=8;align=center;" vertex="1" parent="knsLSSklkNCvqvJmg3KK-18">
          <mxGeometry x="585" y="80" width="100" height="37" as="geometry" />
        </mxCell>
        <mxCell id="knsLSSklkNCvqvJmg3KK-22" style="edgeStyle=orthogonalEdgeStyle;rounded=0;html=1;labelBackgroundColor=none;startArrow=none;startFill=0;startSize=5;endArrow=classicThin;endFill=1;endSize=5;jettySize=auto;orthogonalLoop=1;strokeWidth=1;fontFamily=Verdana;fontSize=8" edge="1" parent="knsLSSklkNCvqvJmg3KK-0" source="knsLSSklkNCvqvJmg3KK-4" target="knsLSSklkNCvqvJmg3KK-13">
          <mxGeometry relative="1" as="geometry" />
        </mxCell>
        <mxCell id="knsLSSklkNCvqvJmg3KK-23" value="" style="edgeStyle=orthogonalEdgeStyle;rounded=0;html=1;labelBackgroundColor=none;startArrow=none;startFill=0;startSize=5;endArrow=classicThin;endFill=1;endSize=5;jettySize=auto;orthogonalLoop=1;strokeWidth=1;fontFamily=Verdana;fontSize=8" edge="1" parent="knsLSSklkNCvqvJmg3KK-0" source="knsLSSklkNCvqvJmg3KK-14" target="knsLSSklkNCvqvJmg3KK-6">
          <mxGeometry x="-0.9364" y="-15" relative="1" as="geometry">
            <mxPoint as="offset" />
          </mxGeometry>
        </mxCell>
        <mxCell id="knsLSSklkNCvqvJmg3KK-25" value="" style="endArrow=classic;html=1;exitX=0.5;exitY=0;exitDx=0;exitDy=0;entryX=0.5;entryY=1;entryDx=0;entryDy=0;" edge="1" parent="knsLSSklkNCvqvJmg3KK-0" source="knsLSSklkNCvqvJmg3KK-21" target="knsLSSklkNCvqvJmg3KK-9">
          <mxGeometry width="50" height="50" relative="1" as="geometry">
            <mxPoint x="530" y="390" as="sourcePoint" />
            <mxPoint x="580" y="340" as="targetPoint" />
          </mxGeometry>
        </mxCell>
        <mxCell id="knsLSSklkNCvqvJmg3KK-19" value="" style="edgeStyle=orthogonalEdgeStyle;rounded=0;orthogonalLoop=1;jettySize=auto;html=1;entryX=0;entryY=0.5;entryDx=0;entryDy=0;exitX=0.5;exitY=1;exitDx=0;exitDy=0;exitPerimeter=0;" edge="1" parent="knsLSSklkNCvqvJmg3KK-0" source="knsLSSklkNCvqvJmg3KK-14" target="knsLSSklkNCvqvJmg3KK-21">
          <mxGeometry relative="1" as="geometry">
            <mxPoint x="430" y="418.5" as="targetPoint" />
            <mxPoint x="382" y="418.5" as="sourcePoint" />
          </mxGeometry>
        </mxCell>
      </root>
    </mxGraphModel>
  </diagram>
  <diagram id="79Sz3u58VfFzfoUAizTf" name="上传工具场景">
    <mxGraphModel dx="1186" dy="646" grid="1" gridSize="10" guides="1" tooltips="1" connect="1" arrows="1" fold="1" page="1" pageScale="1" pageWidth="1169" pageHeight="827" math="0" shadow="0">
      <root>
        <mxCell id="yrwDbKDjHd5rTe8arqQC-0" />
        <mxCell id="yrwDbKDjHd5rTe8arqQC-1" parent="yrwDbKDjHd5rTe8arqQC-0" />
        <mxCell id="fW47hPGNQh7VkDqBXrTm-0" value="上传工具场景" style="swimlane;html=1;childLayout=stackLayout;horizontal=1;startSize=20;horizontalStack=0;rounded=0;shadow=0;labelBackgroundColor=none;strokeWidth=1;fontFamily=Verdana;fontSize=8;align=center;" vertex="1" parent="yrwDbKDjHd5rTe8arqQC-1">
          <mxGeometry x="180" y="70" width="850" height="500" as="geometry" />
        </mxCell>
        <mxCell id="fW47hPGNQh7VkDqBXrTm-1" value="Lane 1" style="swimlane;html=1;startSize=20;horizontal=0;" vertex="1" parent="fW47hPGNQh7VkDqBXrTm-0">
          <mxGeometry y="20" width="850" height="150" as="geometry" />
        </mxCell>
        <mxCell id="fW47hPGNQh7VkDqBXrTm-2" style="edgeStyle=orthogonalEdgeStyle;rounded=0;html=1;labelBackgroundColor=none;startArrow=none;startFill=0;startSize=5;endArrow=classicThin;endFill=1;endSize=5;jettySize=auto;orthogonalLoop=1;strokeWidth=1;fontFamily=Verdana;fontSize=8" edge="1" parent="fW47hPGNQh7VkDqBXrTm-1" source="fW47hPGNQh7VkDqBXrTm-3" target="fW47hPGNQh7VkDqBXrTm-4">
          <mxGeometry relative="1" as="geometry" />
        </mxCell>
        <mxCell id="fW47hPGNQh7VkDqBXrTm-3" value="" style="ellipse;whiteSpace=wrap;html=1;rounded=0;shadow=0;labelBackgroundColor=none;strokeWidth=1;fontFamily=Verdana;fontSize=8;align=center;" vertex="1" parent="fW47hPGNQh7VkDqBXrTm-1">
          <mxGeometry x="60" y="60" width="30" height="30" as="geometry" />
        </mxCell>
        <mxCell id="fW47hPGNQh7VkDqBXrTm-4" value="进入工具管理页面" style="rounded=1;whiteSpace=wrap;html=1;shadow=0;labelBackgroundColor=none;strokeWidth=1;fontFamily=Verdana;fontSize=8;align=center;" vertex="1" parent="fW47hPGNQh7VkDqBXrTm-1">
          <mxGeometry x="120" y="56.49999999999997" width="70" height="37" as="geometry" />
        </mxCell>
        <mxCell id="fW47hPGNQh7VkDqBXrTm-29" value="" style="edgeStyle=orthogonalEdgeStyle;rounded=0;orthogonalLoop=1;jettySize=auto;html=1;" edge="1" parent="fW47hPGNQh7VkDqBXrTm-1" source="fW47hPGNQh7VkDqBXrTm-6" target="fW47hPGNQh7VkDqBXrTm-7">
          <mxGeometry relative="1" as="geometry" />
        </mxCell>
        <mxCell id="fW47hPGNQh7VkDqBXrTm-6" value="提示上传文件过大" style="rounded=1;whiteSpace=wrap;html=1;shadow=0;labelBackgroundColor=none;strokeWidth=1;fontFamily=Verdana;fontSize=8;align=center;" vertex="1" parent="fW47hPGNQh7VkDqBXrTm-1">
          <mxGeometry x="312" y="54.49999999999997" width="70" height="37" as="geometry" />
        </mxCell>
        <mxCell id="fW47hPGNQh7VkDqBXrTm-7" value="" style="ellipse;whiteSpace=wrap;html=1;rounded=0;shadow=0;labelBackgroundColor=none;strokeWidth=2;fontFamily=Verdana;fontSize=8;align=center;" vertex="1" parent="fW47hPGNQh7VkDqBXrTm-1">
          <mxGeometry x="450" y="58" width="30" height="30" as="geometry" />
        </mxCell>
        <mxCell id="fW47hPGNQh7VkDqBXrTm-8" value="" style="edgeStyle=orthogonalEdgeStyle;rounded=0;orthogonalLoop=1;jettySize=auto;html=1;" edge="1" parent="fW47hPGNQh7VkDqBXrTm-1" source="fW47hPGNQh7VkDqBXrTm-9" target="fW47hPGNQh7VkDqBXrTm-10">
          <mxGeometry relative="1" as="geometry" />
        </mxCell>
        <mxCell id="fW47hPGNQh7VkDqBXrTm-9" value="等待上传" style="rounded=1;whiteSpace=wrap;html=1;shadow=0;labelBackgroundColor=none;strokeWidth=1;fontFamily=Verdana;fontSize=8;align=center;" vertex="1" parent="fW47hPGNQh7VkDqBXrTm-1">
          <mxGeometry x="590" y="54.49999999999997" width="70" height="37" as="geometry" />
        </mxCell>
        <mxCell id="fW47hPGNQh7VkDqBXrTm-10" value="" style="ellipse;whiteSpace=wrap;html=1;rounded=0;shadow=0;labelBackgroundColor=none;strokeWidth=2;fontFamily=Verdana;fontSize=8;align=center;" vertex="1" parent="fW47hPGNQh7VkDqBXrTm-1">
          <mxGeometry x="740" y="58" width="30" height="30" as="geometry" />
        </mxCell>
        <mxCell id="fW47hPGNQh7VkDqBXrTm-13" value="Lane 2" style="swimlane;html=1;startSize=20;horizontal=0;" vertex="1" parent="fW47hPGNQh7VkDqBXrTm-0">
          <mxGeometry y="170" width="850" height="150" as="geometry" />
        </mxCell>
        <mxCell id="fW47hPGNQh7VkDqBXrTm-14" value="" style="edgeStyle=orthogonalEdgeStyle;rounded=0;orthogonalLoop=1;jettySize=auto;html=1;entryX=0;entryY=0.5;entryDx=0;entryDy=0;entryPerimeter=0;" edge="1" parent="fW47hPGNQh7VkDqBXrTm-13" source="fW47hPGNQh7VkDqBXrTm-15" target="fW47hPGNQh7VkDqBXrTm-16">
          <mxGeometry relative="1" as="geometry">
            <mxPoint x="240" y="68.5" as="targetPoint" />
          </mxGeometry>
        </mxCell>
        <mxCell id="fW47hPGNQh7VkDqBXrTm-15" value="点击上传工具" style="rounded=1;whiteSpace=wrap;html=1;shadow=0;labelBackgroundColor=none;strokeWidth=1;fontFamily=Verdana;fontSize=8;align=center;" vertex="1" parent="fW47hPGNQh7VkDqBXrTm-13">
          <mxGeometry x="120" y="49.99999999999996" width="70" height="37" as="geometry" />
        </mxCell>
        <mxCell id="fW47hPGNQh7VkDqBXrTm-16" value="工具大小检查" style="strokeWidth=1;html=1;shape=mxgraph.flowchart.decision;whiteSpace=wrap;rounded=1;shadow=0;labelBackgroundColor=none;fontFamily=Verdana;fontSize=8;align=center;" vertex="1" parent="fW47hPGNQh7VkDqBXrTm-13">
          <mxGeometry x="312" y="53.5" width="70" height="30" as="geometry" />
        </mxCell>
        <mxCell id="fW47hPGNQh7VkDqBXrTm-17" style="edgeStyle=orthogonalEdgeStyle;rounded=0;orthogonalLoop=1;jettySize=auto;html=1;exitX=0.5;exitY=1;exitDx=0;exitDy=0;" edge="1" parent="fW47hPGNQh7VkDqBXrTm-13">
          <mxGeometry relative="1" as="geometry">
            <mxPoint x="307" y="95" as="sourcePoint" />
            <mxPoint x="307" y="95" as="targetPoint" />
          </mxGeometry>
        </mxCell>
        <mxCell id="fW47hPGNQh7VkDqBXrTm-30" value="未通过" style="text;html=1;align=center;verticalAlign=middle;resizable=0;points=[];autosize=1;strokeColor=none;" vertex="1" parent="fW47hPGNQh7VkDqBXrTm-13">
          <mxGeometry x="352" y="30" width="50" height="20" as="geometry" />
        </mxCell>
        <mxCell id="fW47hPGNQh7VkDqBXrTm-31" value="通过" style="text;html=1;align=center;verticalAlign=middle;resizable=0;points=[];autosize=1;strokeColor=none;" vertex="1" parent="fW47hPGNQh7VkDqBXrTm-13">
          <mxGeometry x="352" y="83.5" width="40" height="20" as="geometry" />
        </mxCell>
        <mxCell id="fW47hPGNQh7VkDqBXrTm-20" value="Lane 3" style="swimlane;html=1;startSize=20;horizontal=0;" vertex="1" parent="fW47hPGNQh7VkDqBXrTm-0">
          <mxGeometry y="320" width="850" height="180" as="geometry" />
        </mxCell>
        <mxCell id="fW47hPGNQh7VkDqBXrTm-34" value="" style="edgeStyle=orthogonalEdgeStyle;rounded=0;orthogonalLoop=1;jettySize=auto;html=1;entryX=0;entryY=0.5;entryDx=0;entryDy=0;" edge="1" parent="fW47hPGNQh7VkDqBXrTm-20" source="fW47hPGNQh7VkDqBXrTm-22" target="fW47hPGNQh7VkDqBXrTm-23">
          <mxGeometry relative="1" as="geometry">
            <mxPoint x="430" y="98.5" as="targetPoint" />
          </mxGeometry>
        </mxCell>
        <mxCell id="fW47hPGNQh7VkDqBXrTm-22" value="弹出信息输入框" style="rounded=1;whiteSpace=wrap;html=1;shadow=0;labelBackgroundColor=none;strokeWidth=1;fontFamily=Verdana;fontSize=8;align=center;" vertex="1" parent="fW47hPGNQh7VkDqBXrTm-20">
          <mxGeometry x="312" y="80.00000000000003" width="70" height="37" as="geometry" />
        </mxCell>
        <mxCell id="fW47hPGNQh7VkDqBXrTm-23" value="填写策略、工具执行命令等信息" style="rounded=1;whiteSpace=wrap;html=1;shadow=0;labelBackgroundColor=none;strokeWidth=1;fontFamily=Verdana;fontSize=8;align=center;" vertex="1" parent="fW47hPGNQh7VkDqBXrTm-20">
          <mxGeometry x="540" y="80" width="170" height="37" as="geometry" />
        </mxCell>
        <mxCell id="fW47hPGNQh7VkDqBXrTm-26" style="edgeStyle=orthogonalEdgeStyle;rounded=0;html=1;labelBackgroundColor=none;startArrow=none;startFill=0;startSize=5;endArrow=classicThin;endFill=1;endSize=5;jettySize=auto;orthogonalLoop=1;strokeWidth=1;fontFamily=Verdana;fontSize=8" edge="1" parent="fW47hPGNQh7VkDqBXrTm-0" source="fW47hPGNQh7VkDqBXrTm-4" target="fW47hPGNQh7VkDqBXrTm-15">
          <mxGeometry relative="1" as="geometry" />
        </mxCell>
        <mxCell id="fW47hPGNQh7VkDqBXrTm-11" value="" style="edgeStyle=orthogonalEdgeStyle;rounded=0;html=1;labelBackgroundColor=none;startArrow=none;startFill=0;startSize=5;endArrow=classicThin;endFill=1;endSize=5;jettySize=auto;orthogonalLoop=1;strokeWidth=1;fontFamily=Verdana;fontSize=8" edge="1" parent="fW47hPGNQh7VkDqBXrTm-0" source="fW47hPGNQh7VkDqBXrTm-16" target="fW47hPGNQh7VkDqBXrTm-6">
          <mxGeometry x="-0.9364" y="-15" relative="1" as="geometry">
            <mxPoint as="offset" />
          </mxGeometry>
        </mxCell>
        <mxCell id="fW47hPGNQh7VkDqBXrTm-12" value="" style="edgeStyle=orthogonalEdgeStyle;rounded=0;html=1;labelBackgroundColor=none;startArrow=none;startFill=0;startSize=5;endArrow=classicThin;endFill=1;endSize=5;jettySize=auto;orthogonalLoop=1;strokeWidth=1;fontFamily=Verdana;fontSize=8" edge="1" parent="fW47hPGNQh7VkDqBXrTm-0" source="fW47hPGNQh7VkDqBXrTm-16" target="fW47hPGNQh7VkDqBXrTm-22">
          <mxGeometry x="-0.8947" y="15" relative="1" as="geometry">
            <mxPoint as="offset" />
          </mxGeometry>
        </mxCell>
        <mxCell id="fW47hPGNQh7VkDqBXrTm-27" value="" style="endArrow=classic;html=1;exitX=0.5;exitY=0;exitDx=0;exitDy=0;entryX=0.5;entryY=1;entryDx=0;entryDy=0;" edge="1" parent="fW47hPGNQh7VkDqBXrTm-0" source="fW47hPGNQh7VkDqBXrTm-23" target="fW47hPGNQh7VkDqBXrTm-9">
          <mxGeometry width="50" height="50" relative="1" as="geometry">
            <mxPoint x="530" y="390" as="sourcePoint" />
            <mxPoint x="580" y="340" as="targetPoint" />
          </mxGeometry>
        </mxCell>
      </root>
    </mxGraphModel>
  </diagram>
  <diagram name="执行工具场景" id="c7488fd3-1785-93aa-aadb-54a6760d102a">
    <mxGraphModel dx="1186" dy="589" grid="1" gridSize="10" guides="1" tooltips="1" connect="1" arrows="1" fold="1" page="1" pageScale="1" pageWidth="1100" pageHeight="850" background="none" math="0" shadow="0">
      <root>
        <mxCell id="0" />
        <mxCell id="1" parent="0" />
        <mxCell id="2b4e8129b02d487f-1" value="执行工具场景" style="swimlane;html=1;childLayout=stackLayout;horizontal=1;startSize=20;horizontalStack=0;rounded=0;shadow=0;labelBackgroundColor=none;strokeWidth=1;fontFamily=Verdana;fontSize=8;align=center;" parent="1" vertex="1">
          <mxGeometry x="180" y="70" width="850" height="500" as="geometry" />
        </mxCell>
        <mxCell id="2b4e8129b02d487f-2" value="Lane 1" style="swimlane;html=1;startSize=20;horizontal=0;" parent="2b4e8129b02d487f-1" vertex="1">
          <mxGeometry y="20" width="850" height="150" as="geometry" />
        </mxCell>
        <mxCell id="2b4e8129b02d487f-18" style="edgeStyle=orthogonalEdgeStyle;rounded=0;html=1;labelBackgroundColor=none;startArrow=none;startFill=0;startSize=5;endArrow=classicThin;endFill=1;endSize=5;jettySize=auto;orthogonalLoop=1;strokeWidth=1;fontFamily=Verdana;fontSize=8" parent="2b4e8129b02d487f-2" source="2b4e8129b02d487f-5" target="2b4e8129b02d487f-6" edge="1">
          <mxGeometry relative="1" as="geometry" />
        </mxCell>
        <mxCell id="2b4e8129b02d487f-5" value="" style="ellipse;whiteSpace=wrap;html=1;rounded=0;shadow=0;labelBackgroundColor=none;strokeWidth=1;fontFamily=Verdana;fontSize=8;align=center;" parent="2b4e8129b02d487f-2" vertex="1">
          <mxGeometry x="60" y="60" width="30" height="30" as="geometry" />
        </mxCell>
        <mxCell id="2b4e8129b02d487f-6" value="进入工具列表页面" style="rounded=1;whiteSpace=wrap;html=1;shadow=0;labelBackgroundColor=none;strokeWidth=1;fontFamily=Verdana;fontSize=8;align=center;" parent="2b4e8129b02d487f-2" vertex="1">
          <mxGeometry x="120" y="56.49999999999997" width="70" height="37" as="geometry" />
        </mxCell>
        <mxCell id="2b4e8129b02d487f-20" style="edgeStyle=orthogonalEdgeStyle;rounded=0;html=1;labelBackgroundColor=none;startArrow=none;startFill=0;startSize=5;endArrow=classicThin;endFill=1;endSize=5;jettySize=auto;orthogonalLoop=1;strokeWidth=1;fontFamily=Verdana;fontSize=8" parent="2b4e8129b02d487f-2" source="2b4e8129b02d487f-7" target="2b4e8129b02d487f-8" edge="1">
          <mxGeometry relative="1" as="geometry" />
        </mxCell>
        <mxCell id="2b4e8129b02d487f-7" value="返回权限不足异常" style="rounded=1;whiteSpace=wrap;html=1;shadow=0;labelBackgroundColor=none;strokeWidth=1;fontFamily=Verdana;fontSize=8;align=center;" parent="2b4e8129b02d487f-2" vertex="1">
          <mxGeometry x="357.5" y="54.49999999999997" width="70" height="37" as="geometry" />
        </mxCell>
        <mxCell id="2b4e8129b02d487f-8" value="" style="ellipse;whiteSpace=wrap;html=1;rounded=0;shadow=0;labelBackgroundColor=none;strokeWidth=2;fontFamily=Verdana;fontSize=8;align=center;" parent="2b4e8129b02d487f-2" vertex="1">
          <mxGeometry x="462.5" y="58" width="30" height="30" as="geometry" />
        </mxCell>
        <mxCell id="xLPM5JUg7nw7xvuVOODp-12" value="" style="edgeStyle=orthogonalEdgeStyle;rounded=0;orthogonalLoop=1;jettySize=auto;html=1;" edge="1" parent="2b4e8129b02d487f-2" source="2b4e8129b02d487f-9" target="2b4e8129b02d487f-11">
          <mxGeometry relative="1" as="geometry" />
        </mxCell>
        <mxCell id="2b4e8129b02d487f-9" value="页面渲染执行日志" style="rounded=1;whiteSpace=wrap;html=1;shadow=0;labelBackgroundColor=none;strokeWidth=1;fontFamily=Verdana;fontSize=8;align=center;" parent="2b4e8129b02d487f-2" vertex="1">
          <mxGeometry x="630" y="54.49999999999997" width="70" height="37" as="geometry" />
        </mxCell>
        <mxCell id="2b4e8129b02d487f-11" value="" style="ellipse;whiteSpace=wrap;html=1;rounded=0;shadow=0;labelBackgroundColor=none;strokeWidth=2;fontFamily=Verdana;fontSize=8;align=center;" parent="2b4e8129b02d487f-2" vertex="1">
          <mxGeometry x="780" y="58" width="30" height="30" as="geometry" />
        </mxCell>
        <mxCell id="2b4e8129b02d487f-25" value="无" style="edgeStyle=orthogonalEdgeStyle;rounded=0;html=1;labelBackgroundColor=none;startArrow=none;startFill=0;startSize=5;endArrow=classicThin;endFill=1;endSize=5;jettySize=auto;orthogonalLoop=1;strokeWidth=1;fontFamily=Verdana;fontSize=8" parent="2b4e8129b02d487f-1" source="2b4e8129b02d487f-13" target="2b4e8129b02d487f-7" edge="1">
          <mxGeometry x="-0.9364" y="-15" relative="1" as="geometry">
            <mxPoint as="offset" />
          </mxGeometry>
        </mxCell>
        <mxCell id="2b4e8129b02d487f-27" value="有" style="edgeStyle=orthogonalEdgeStyle;rounded=0;html=1;labelBackgroundColor=none;startArrow=none;startFill=0;startSize=5;endArrow=classicThin;endFill=1;endSize=5;jettySize=auto;orthogonalLoop=1;strokeWidth=1;fontFamily=Verdana;fontSize=8" parent="2b4e8129b02d487f-1" source="2b4e8129b02d487f-13" target="2b4e8129b02d487f-14" edge="1">
          <mxGeometry x="-0.8947" y="15" relative="1" as="geometry">
            <mxPoint as="offset" />
          </mxGeometry>
        </mxCell>
        <mxCell id="2b4e8129b02d487f-3" value="Lane 2" style="swimlane;html=1;startSize=20;horizontal=0;" parent="2b4e8129b02d487f-1" vertex="1">
          <mxGeometry y="170" width="850" height="150" as="geometry" />
        </mxCell>
        <mxCell id="xLPM5JUg7nw7xvuVOODp-5" value="" style="edgeStyle=orthogonalEdgeStyle;rounded=0;orthogonalLoop=1;jettySize=auto;html=1;" edge="1" parent="2b4e8129b02d487f-3" source="2b4e8129b02d487f-12" target="xLPM5JUg7nw7xvuVOODp-4">
          <mxGeometry relative="1" as="geometry" />
        </mxCell>
        <mxCell id="2b4e8129b02d487f-12" value="选中要执行工具" style="rounded=1;whiteSpace=wrap;html=1;shadow=0;labelBackgroundColor=none;strokeWidth=1;fontFamily=Verdana;fontSize=8;align=center;" parent="2b4e8129b02d487f-3" vertex="1">
          <mxGeometry x="120" y="49.99999999999996" width="70" height="37" as="geometry" />
        </mxCell>
        <mxCell id="2b4e8129b02d487f-13" value="执行权限" style="strokeWidth=1;html=1;shape=mxgraph.flowchart.decision;whiteSpace=wrap;rounded=1;shadow=0;labelBackgroundColor=none;fontFamily=Verdana;fontSize=8;align=center;" parent="2b4e8129b02d487f-3" vertex="1">
          <mxGeometry x="357.5" y="53.5" width="70" height="30" as="geometry" />
        </mxCell>
        <mxCell id="xLPM5JUg7nw7xvuVOODp-2" style="edgeStyle=orthogonalEdgeStyle;rounded=0;orthogonalLoop=1;jettySize=auto;html=1;exitX=0.5;exitY=1;exitDx=0;exitDy=0;" edge="1" parent="2b4e8129b02d487f-3">
          <mxGeometry relative="1" as="geometry">
            <mxPoint x="275" y="95" as="sourcePoint" />
            <mxPoint x="275" y="95" as="targetPoint" />
          </mxGeometry>
        </mxCell>
        <mxCell id="xLPM5JUg7nw7xvuVOODp-6" value="" style="edgeStyle=orthogonalEdgeStyle;rounded=0;orthogonalLoop=1;jettySize=auto;html=1;" edge="1" parent="2b4e8129b02d487f-3" source="xLPM5JUg7nw7xvuVOODp-4" target="2b4e8129b02d487f-13">
          <mxGeometry relative="1" as="geometry" />
        </mxCell>
        <mxCell id="xLPM5JUg7nw7xvuVOODp-4" value="点击执行" style="rounded=1;whiteSpace=wrap;html=1;shadow=0;labelBackgroundColor=none;strokeWidth=1;fontFamily=Verdana;fontSize=8;align=center;" vertex="1" parent="2b4e8129b02d487f-3">
          <mxGeometry x="240" y="49.99999999999994" width="70" height="37" as="geometry" />
        </mxCell>
        <mxCell id="2b4e8129b02d487f-4" value="Lane 3" style="swimlane;html=1;startSize=20;horizontal=0;" parent="2b4e8129b02d487f-1" vertex="1">
          <mxGeometry y="320" width="850" height="180" as="geometry" />
        </mxCell>
        <mxCell id="xLPM5JUg7nw7xvuVOODp-8" value="" style="edgeStyle=orthogonalEdgeStyle;rounded=0;orthogonalLoop=1;jettySize=auto;html=1;" edge="1" parent="2b4e8129b02d487f-4" source="2b4e8129b02d487f-14" target="xLPM5JUg7nw7xvuVOODp-7">
          <mxGeometry relative="1" as="geometry" />
        </mxCell>
        <mxCell id="2b4e8129b02d487f-14" value="弹出命令输入框" style="rounded=1;whiteSpace=wrap;html=1;shadow=0;labelBackgroundColor=none;strokeWidth=1;fontFamily=Verdana;fontSize=8;align=center;" parent="2b4e8129b02d487f-4" vertex="1">
          <mxGeometry x="357.5" y="80.00000000000003" width="70" height="37" as="geometry" />
        </mxCell>
        <mxCell id="2b4e8129b02d487f-17" value="执行工具" style="rounded=1;whiteSpace=wrap;html=1;shadow=0;labelBackgroundColor=none;strokeWidth=1;fontFamily=Verdana;fontSize=8;align=center;" parent="2b4e8129b02d487f-4" vertex="1">
          <mxGeometry x="630" y="80" width="70" height="37" as="geometry" />
        </mxCell>
        <mxCell id="xLPM5JUg7nw7xvuVOODp-10" value="" style="edgeStyle=orthogonalEdgeStyle;rounded=0;orthogonalLoop=1;jettySize=auto;html=1;" edge="1" parent="2b4e8129b02d487f-4" source="xLPM5JUg7nw7xvuVOODp-7" target="2b4e8129b02d487f-17">
          <mxGeometry relative="1" as="geometry" />
        </mxCell>
        <mxCell id="xLPM5JUg7nw7xvuVOODp-7" value="命令输入" style="strokeWidth=1;html=1;shape=mxgraph.flowchart.decision;whiteSpace=wrap;rounded=1;shadow=0;labelBackgroundColor=none;fontFamily=Verdana;fontSize=8;align=center;" vertex="1" parent="2b4e8129b02d487f-4">
          <mxGeometry x="470" y="83.5" width="70" height="30" as="geometry" />
        </mxCell>
        <mxCell id="2b4e8129b02d487f-24" style="edgeStyle=orthogonalEdgeStyle;rounded=0;html=1;labelBackgroundColor=none;startArrow=none;startFill=0;startSize=5;endArrow=classicThin;endFill=1;endSize=5;jettySize=auto;orthogonalLoop=1;strokeWidth=1;fontFamily=Verdana;fontSize=8" parent="2b4e8129b02d487f-1" source="2b4e8129b02d487f-6" target="2b4e8129b02d487f-12" edge="1">
          <mxGeometry relative="1" as="geometry" />
        </mxCell>
        <mxCell id="xLPM5JUg7nw7xvuVOODp-11" value="" style="endArrow=classic;html=1;exitX=0.5;exitY=0;exitDx=0;exitDy=0;entryX=0.5;entryY=1;entryDx=0;entryDy=0;" edge="1" parent="2b4e8129b02d487f-1" source="2b4e8129b02d487f-17" target="2b4e8129b02d487f-9">
          <mxGeometry width="50" height="50" relative="1" as="geometry">
            <mxPoint x="570" y="390" as="sourcePoint" />
            <mxPoint x="620" y="340" as="targetPoint" />
          </mxGeometry>
        </mxCell>
        <mxCell id="xLPM5JUg7nw7xvuVOODp-9" value="有" style="text;html=1;align=center;verticalAlign=middle;resizable=0;points=[];autosize=1;strokeColor=none;" vertex="1" parent="1">
          <mxGeometry x="685" y="501.5" width="30" height="20" as="geometry" />
        </mxCell>
      </root>
    </mxGraphModel>
  </diagram>
</mxfile>
